<svg width="24" height="24" viewBox="0 0 24 24" fill="none" xmlns="http://www.w3.org/2000/svg">
<path d="M10.3494 24L11.2225 21.4945L13 16.4177L11.5489 8C11.5489 8 11.4138 10.0082 10.1269 13.395C9.11873 16.0459 7.29861 19.4404 5 23.9987L10.3494 24Z" fill="url(#paint0_linear_2033_28562)"/>
<path d="M11.0285 1H15.4927C15.4927 1 15.3577 2.95226 15.2306 5.59007C15.1316 7.74348 14.9966 10.5277 15.2306 13.7104C15.5113 17.1837 16.1033 20.6266 17 24H12.8458C12.8458 24 12.3005 21.8109 11.771 17.38C11.5089 15.2209 11.2153 12.5277 11.0646 9.29599C10.9446 6.84596 11.0285 4.08148 11.0285 1Z" fill="url(#paint1_linear_2033_28562)"/>
<defs>
<linearGradient id="paint0_linear_2033_28562" x1="12.1253" y1="15.9941" x2="4.06589" y2="12.2104" gradientUnits="userSpaceOnUse">
<stop stop-color="#1B60F1"/>
<stop offset="0.728567" stop-color="#228EF0"/>
<stop offset="0.995191" stop-color="#259FF0"/>
</linearGradient>
<linearGradient id="paint1_linear_2033_28562" x1="16.344" y1="12.4916" x2="9.38466" y2="10.7869" gradientUnits="userSpaceOnUse">
<stop stop-color="#1B60F1"/>
<stop offset="0.728567" stop-color="#228EF0"/>
<stop offset="0.995191" stop-color="#259FF0"/>
</linearGradient>
</defs>
</svg>
